<svg width="831" height="793" viewBox="0 0 831 793" fill="none" xmlns="http://www.w3.org/2000/svg">
<g clip-path="url(#clip0_1_7)">
<path opacity="0.5" d="M729.777 387.645L698.76 488.737L637.177 469.843C631.487 468.08 625.553 467.305 619.735 467.565C613.917 467.825 608.335 469.115 603.325 471.356C590.471 476.929 580.862 487.829 577.006 501.214C573.505 513.098 575.09 526.085 581.482 537.889C585.87 545.687 594.44 555.998 610.419 560.9L670.924 579.464L640.172 679.694C635.02 696.412 622.199 710.021 604.522 717.536C586.846 725.051 565.757 725.859 545.884 719.781L426.814 683.249L442.719 631.41C445.906 621.022 443.725 609.297 436.629 598.409C432.684 592.352 427.467 586.919 421.277 582.422C415.088 577.925 408.048 574.453 400.564 572.205C371.911 563.786 341.74 576.17 334.659 599.248L319.033 650.18L198.669 613.251C188.849 610.274 179.638 605.648 171.595 599.655C163.552 593.661 156.844 586.425 151.877 578.384C141.896 562.305 139.206 544.075 144.381 527.579L166.385 455.859L146.877 449.874C135.153 446.277 124.149 440.75 114.508 433.616C104.867 426.482 96.7817 417.884 90.7243 408.323C84.6668 398.762 80.7585 388.431 79.2272 377.931C77.696 367.432 78.5726 356.975 81.8059 347.17C94.9901 307.178 145.13 286.738 193.564 301.598L211.981 307.249L233.985 235.529C236.395 227.302 240.73 219.737 246.735 213.277C252.741 206.817 260.296 201.593 268.958 197.91C277.62 194.227 287.215 192.161 297.179 191.831C307.143 191.501 317.277 192.915 326.985 195.99L412.185 222.131L416.938 206.639C429.667 165.155 479.092 143.392 527.109 158.124C576.432 173.257 606.34 218.901 593.769 259.876L588.73 276.297L673.931 302.438C715.251 315.116 740.302 353.339 729.777 387.645Z" fill="#03A6FA"/>
</g>
<defs>
<clipPath id="clip0_1_7">
<rect width="607.367" height="721.534" fill="white" transform="translate(-37 580.651) rotate(-72.9433)"/>
</clipPath>
</defs>
</svg>
