<svg width="785" height="819" viewBox="0 0 785 819" fill="none" xmlns="http://www.w3.org/2000/svg">
<g clip-path="url(#clip0_13_516)">
<path opacity="0.5" d="M410.601 669.996L309.416 605.409L334.941 565.42C337.317 561.732 338.698 557.459 339.001 552.859C339.304 548.259 338.522 543.428 336.703 538.656C332.218 526.485 321.923 514.681 308.502 506.324C296.592 498.843 283.047 494.849 270.249 495.044C261.778 495.301 250.306 497.78 243.684 508.155L218.605 547.444L118.283 483.408C101.552 472.71 88.7792 457.335 82.7655 440.658C76.7519 423.98 77.9891 407.362 86.2056 394.45L135.558 317.132L187.445 350.251C197.843 356.888 210.146 359.914 222.068 358.807C228.699 358.193 234.813 356.345 240.057 353.37C245.301 350.395 249.572 346.351 252.624 341.471C264.116 322.716 254.309 294.429 231.21 279.684L180.231 247.145L230.119 168.986C234.152 162.596 239.825 157.338 246.794 153.532C253.763 149.726 261.883 147.451 270.661 146.845C288.218 145.593 307.278 150.841 323.778 161.467L395.564 207.288L403.649 194.621C408.509 187.007 415.287 180.726 423.589 176.144C431.89 171.562 441.549 168.77 452.001 167.932C462.453 167.093 473.488 168.225 484.464 171.261C495.44 174.297 506.135 179.176 515.927 185.614C555.866 211.871 572.019 258.824 551.944 290.275L544.311 302.234L616.097 348.055C624.342 353.222 631.717 359.611 637.788 366.847C643.859 374.083 648.504 382.02 651.451 390.192C654.398 398.365 655.587 406.609 654.949 414.44C654.311 422.271 651.858 429.532 647.735 435.797L612.421 491.122L627.927 501.02C669.45 527.524 687.038 574.457 667.136 605.636C646.693 637.664 596.696 642.431 555.684 616.253L539.247 605.761L503.933 661.086C486.807 687.917 444.939 691.913 410.601 669.996Z" fill="#F82A8E"/>
</g>
<defs>
<clipPath id="clip0_13_516">
<rect width="689.491" height="531.388" fill="white" transform="translate(286.86) rotate(32.5501)"/>
</clipPath>
</defs>
</svg>
